<svg xmlns="http://www.w3.org/2000/svg" xmlns:xlink="http://www.w3.org/1999/xlink" width="21" height="21" viewBox="0 0 21 21">
    <defs>
        <path id="prefix__a" d="M0 0L21 0 21 21 0 21z"/>
    </defs>
    <g fill="none" fill-rule="evenodd">
        <path fill="#000" d="M10.25 3.726h2.881c.34 0 .616-.275.616-.615 0-.34-.276-.615-.616-.615H10.25c-.34 0-.615.275-.615.615 0 .34.275.615.615.615zM10.25 6.193h5.71c.339 0 .614-.276.614-.616 0-.339-.275-.614-.614-.614h-5.71c-.34 0-.616.275-.616.614 0 .34.275.616.615.616z"/>
        <mask id="prefix__b" fill="#fff">
            <use xlink:href="#prefix__a"/>
        </mask>
        <path fill="#000" d="M19.77 18.744c0 .566-.46 1.026-1.026 1.026H7.465c-.565 0-1.026-.46-1.026-1.026v-8.408c0-.565.46-1.026 1.026-1.026h11.279c.565 0 1.026.46 1.026 1.026v8.408zm-14.56 0c0 .566-.461 1.026-1.026 1.026H2.256c-.566 0-1.025-.46-1.025-1.026v-8.408c0-.565.46-1.026 1.025-1.026h1.928c.565 0 1.025.46 1.025 1.026v8.408zM8.244 8.08h9.72V1.23h-9.72v6.85zm10.95.045V1.136C19.195.51 18.685 0 18.06 0H8.15c-.627 0-1.136.51-1.136 1.136v6.99c-.464.094-.877.332-1.19.664-.411-.437-.994-.71-1.64-.71H2.256C1.012 8.08 0 9.092 0 10.336v8.408C0 19.988 1.012 21 2.256 21h1.928c.646 0 1.229-.273 1.64-.71.412.437.995.71 1.641.71h11.279C19.988 21 21 19.988 21 18.744v-8.408c0-1.09-.777-2-1.805-2.21z" mask="url(#prefix__b)"/>
        <path fill="#000" d="M10.233 11.464h-.82c-.34 0-.615.275-.615.615 0 .34.276.615.615.615h.82c.34 0 .616-.275.616-.615 0-.34-.276-.615-.616-.615M13.515 11.464h-.821c-.34 0-.615.275-.615.615 0 .34.276.615.615.615h.82c.34 0 .616-.275.616-.615 0-.34-.275-.615-.615-.615M16.796 11.464h-.82c-.34 0-.615.275-.615.615 0 .34.275.615.614.615h.82c.34 0 .616-.275.616-.615 0-.34-.275-.615-.615-.615M10.233 13.925h-.82c-.34 0-.615.275-.615.615 0 .34.276.615.615.615h.82c.34 0 .616-.276.616-.615 0-.34-.276-.615-.616-.615M13.515 13.925h-.821c-.34 0-.615.275-.615.615 0 .34.276.615.615.615h.82c.34 0 .616-.276.616-.615 0-.34-.275-.615-.615-.615M16.796 13.925h-.82c-.34 0-.615.275-.615.615 0 .34.275.615.614.615h.82c.34 0 .616-.276.616-.615 0-.34-.275-.615-.615-.615M10.233 16.386h-.82c-.34 0-.615.275-.615.615 0 .34.276.615.615.615h.82c.34 0 .616-.276.616-.615 0-.34-.276-.615-.616-.615M13.515 16.386h-.821c-.34 0-.615.275-.615.615 0 .34.276.615.615.615h.82c.34 0 .616-.276.616-.615 0-.34-.275-.615-.615-.615M16.796 16.386h-.82c-.34 0-.615.275-.615.615 0 .34.275.615.614.615h.82c.34 0 .616-.276.616-.615 0-.34-.275-.615-.615-.615"/>
    </g>
</svg>
