<svg xmlns="http://www.w3.org/2000/svg" width="21" height="21" viewBox="0 0 21 21">
    <g fill-rule="evenodd">
        <path d="M18 17.512c-.004 0-.004.004 0 0-.17.184-.347.351-.536.536-.285.272-.575.557-.847.878-.444.474-.966.698-1.65.698-.067 0-.137 0-.203-.004-1.305-.084-2.516-.593-3.425-1.028-2.486-1.203-4.668-2.91-6.482-5.076-1.497-1.805-2.499-3.473-3.162-5.265-.408-1.093-.557-1.945-.49-2.749.043-.514.24-.94.605-1.304L3.307 2.7c.215-.202.444-.31.667-.31.277 0 .501.166.642.306.004.004.008.01.013.013.268.25.522.51.79.786.136.141.277.281.417.426l1.2 1.2c.465.464.465.895 0 1.36-.128.128-.25.255-.379.378-.368.378-.72.73-1.102 1.071-.008.01-.017.014-.022.022-.377.378-.307.747-.228.997.004.013.01.026.013.04.312.755.751 1.466 1.42 2.314l.003.004c1.212 1.493 2.49 2.657 3.9 3.548.18.114.364.207.54.295.158.08.307.153.434.232.018.01.035.022.053.031.15.075.29.11.435.11.364 0 .592-.229.667-.303l1.502-1.502c.15-.149.386-.329.663-.329.272 0 .496.171.632.32l.01.01 2.42 2.42c.451.446.451.908.003 1.373zm-1.572-4.624c-.426-.443-.94-.68-1.484-.68-.54 0-1.059.232-1.502.676l-1.388 1.383c-.114-.062-.228-.119-.338-.176-.158-.079-.307-.153-.435-.233-1.299-.825-2.48-1.9-3.614-3.293-.548-.694-.917-1.278-1.185-1.87.36-.33.694-.672 1.02-1.002l.367-.373c.923-.922.923-2.117 0-3.039L6.671 3.082c-.136-.136-.277-.276-.409-.417-.263-.272-.54-.553-.825-.816-.426-.422-.936-.646-1.47-.646-.537 0-1.055.224-1.494.646l-.009.008L.971 3.363C.41 3.926.088 4.611.018 5.405-.087 6.688.29 7.882.58 8.665c.711 1.918 1.774 3.696 3.36 5.602 1.923 2.296 4.237 4.11 6.88 5.388 1.01.48 2.358 1.045 3.865 1.142.092.004.188.008.276.008 1.015 0 1.867-.364 2.534-1.089.004-.008.013-.013.018-.022.228-.276.491-.527.768-.794.19-.18.382-.369.571-.567.435-.452.663-.979.663-1.519 0-.545-.233-1.067-.676-1.506l-2.41-2.42zM11.229 4.95c1.15.192 2.196.737 3.03 1.571.834.834 1.374 1.88 1.572 3.03.048.29.299.492.584.492.035 0 .066-.005.1-.009.326-.053.54-.36.488-.685-.237-1.392-.895-2.66-1.901-3.667-1.006-1.005-2.275-1.664-3.667-1.9-.325-.054-.628.161-.685.482-.057.321.154.632.479.685M20.767 9.178c-.391-2.292-1.471-4.378-3.131-6.038C15.976 1.48 13.89.4 11.598.009c-.32-.057-.623.163-.681.483-.052.325.163.628.488.685 2.046.347 3.912 1.318 5.397 2.797 1.484 1.485 2.45 3.35 2.797 5.397.048.29.299.492.584.492.035 0 .066-.004.1-.01.322-.047.54-.354.484-.675"/>
    </g>
</svg>
