<svg xmlns="http://www.w3.org/2000/svg" width="66" height="77" viewBox="0 0 66 77">
    <g fill="none" fill-rule="evenodd" stroke="#FFF" stroke-width="1.5">
        <path d="M55.43 21.58C53.683 5.631 42.687.702 28.65.702 13.217.703.706 13.165.706 28.538c0 9.858 5.91 17.237 6.985 23.196C8.723 57.448 8.857 74.93 8.857 74.93h34.93l-2.329-9.279h7.559c4.828 0 8.741-3.898 8.741-8.707l-2.328-9.85h8.15L55.43 21.58zM37.965 65.651h4.657" transform="translate(1 1)"/>
        <path stroke-linecap="round" stroke-linejoin="round" d="M40.681 28.861c4.014 0 6.635-2.53 6.598-5.06-.055-3.691-2.694-5.009-5.278-5.062-.429-.008-.834.08-1.22.202.75-.691 1.22-1.657 1.22-2.732 0-2.097-1.773-3.795-3.959-3.795-.474 0-.923.093-1.345.239.006-.08.026-.158.026-.24 0-2.096-1.773-3.795-3.959-3.795-1.147 0-2.172.475-2.895 1.223-.557-1.45-1.998-2.489-3.703-2.489-2.094 0-3.818 1.823-3.96 3.796-.824-1.055-1.607-1.266-2.638-1.266-2.187 0-3.959 1.7-3.959 3.796 0 .412.087.802.213 1.173-.72-.72-1.73-1.173-2.852-1.173-2.186 0-3.959 1.7-3.959 3.796 0 1.1.54 1.837 1.32 2.53-1.512.535-2.639 2.162-2.639 3.797 0 2.096 1.772 3.795 3.959 3.795-2.187 0-3.959 1.7-3.959 3.796s1.772 3.795 3.959 3.795h6.597c1.72 0 3.155-1.06 3.698-2.53M10.331 20.005h7.917M20.888 17.474c0 1.398-1.181 2.53-2.64 2.53M29.846 10.016c.651 1.25.123 2.77-1.18 3.395M16.929 23.8c1.458 0 2.64 1.134 2.64 2.53M19.568 9.883c1.458 0 2.64 1.133 2.64 2.53M10.331 27.596h5.278M34.083 16.209c0-2.096 1.773-3.796 3.959-3.796" transform="translate(1 1)"/>
        <path d="M27.486 19.26L34.479 19.26 39.129 34.337 33.308 34.337 39.129 50.574 25.157 30.858 32.143 30.858z" transform="translate(1 1)"/>
    </g>
</svg>
