<svg xmlns="http://www.w3.org/2000/svg" width="95" height="54" viewBox="0 0 95 54">
    <g fill="none" fill-rule="evenodd" stroke="#FFF" stroke-width="1.5">
        <path d="M48.827 36.396c.903-.01 1.76.01 2.547.07 8.557.638 26.502 13.457 32.137 15.139 5.634 1.681 10.225-2.101 9.39-9.456 0 0-5.017-22.064-7.517-31.52S76.618-.93 70.153.332c-6.466 1.26-14.81 7.35-24.2 7.15h1.094c-9.39.2-17.735-5.89-24.2-7.15-6.465-1.26-12.731.84-15.232 10.297-2.5 9.456-7.517 31.52-7.517 31.52-.834 7.355 3.757 11.137 9.391 9.456 5.635-1.682 23.58-14.501 32.137-15.14.637-.047 1.32-.07 2.036-.072l5.165.003z" transform="translate(1 1)"/>
        <path d="M30.958 15.763H28.83v-1.72C28.83 11.818 27.224 10 25 10s-3.83 1.82-3.83 4.042v1.721h-2.128c-2.223 0-4.042 1.926-4.042 4.15 0 2.222 1.82 4.148 4.042 4.148h2.128v1.897C21.17 28.18 22.776 30 25 30s3.83-1.82 3.83-4.042V24.06h2.128c2.223 0 4.042-1.926 4.042-4.149s-1.82-4.149-4.042-4.149zM73 14c0 1.657-1.343 3-3 3s-3-1.343-3-3 1.343-3 3-3 3 1.343 3 3zM73 26c0 1.657-1.343 3-3 3s-3-1.343-3-3 1.343-3 3-3 3 1.343 3 3zM63 17c1.657 0 3 1.343 3 3s-1.343 3-3 3-3-1.343-3-3 1.343-3 3-3zM77 17c1.657 0 3 1.343 3 3s-1.343 3-3 3-3-1.343-3-3 1.343-3 3-3z" transform="translate(1 1)"/>
    </g>
</svg>
