<svg xmlns="http://www.w3.org/2000/svg" width="68" height="68" viewBox="0 0 68 68">
    <g fill="none" fill-rule="evenodd" stroke="#FFF" stroke-width="1.5">
        <path d="M65.313 33c0 17.846-14.467 32.313-32.313 32.313C15.154 65.313.687 50.846.687 33 .688 15.154 15.155.687 33 .687 50.846.688 65.313 15.155 65.313 33zM33 3.815v2.084M33 62.186V60.1M18.407 7.725L19.45 9.53M47.593 58.275l-1.043-1.804M7.725 18.407l1.804 1.043M58.275 47.593L56.47 46.55M3.815 33h2.084M62.185 33h-2.084M7.725 47.593l1.804-1.042M58.275 18.407L56.47 19.45M18.407 58.275l1.042-1.804M47.593 7.725L46.55 9.53M19.45 15.28l19.804 26.058M26.746 38.212l17.72-14.593" transform="translate(1 1)"/>
        <path d="M18.308 19.38c-6.487 6.934-7.234 17.723-1.28 25.52 6.638 8.694 19.066 10.36 27.76 3.723 8.693-6.638 10.36-19.066 3.722-27.76-5.954-7.797-16.559-9.92-24.955-5.489" transform="translate(1 1)"/>
    </g>
</svg>
