<svg xmlns="http://www.w3.org/2000/svg" width="18" height="24" viewBox="0 0 18 24">
    <g fill="#FFF">
        <path d="M9 4c-2.238.032-4.027 1.822-4 4-.027 2.178 1.762 3.968 4 4 2.238-.032 4.027-1.822 4-4 .027-2.178-1.762-3.968-4-4zm0 6.882C7.394 10.852 6.116 9.562 6.144 8 6.116 6.437 7.394 5.148 9 5.118c1.606.03 2.884 1.32 2.856 2.882.028 1.563-1.25 2.852-2.856 2.882z"/>
        <path d="M9 0C4.035 0 0 4.44 0 9.906c-.026 2.555.9 5.032 2.602 6.966L9 24l6.447-7.2c1.668-1.923 2.574-4.37 2.553-6.894C18 4.44 13.965 0 9 0zm5.51 15.996L9 22.11l-5.442-6.06c-1.5-1.707-2.311-3.892-2.284-6.144 0-4.776 3.44-8.658 7.726-8.658s7.726 3.882 7.726 8.658c.032 2.225-.755 4.387-2.216 6.09z"/>
    </g>
</svg>
