<svg xmlns="http://www.w3.org/2000/svg" xmlns:xlink="http://www.w3.org/1999/xlink" width="23" height="18" viewBox="0 0 23 18">
    <defs>
        <path id="prefix__a" d="M0 0L22.789 0 22.789 17.358 0 17.358z"/>
    </defs>
    <g fill="none" fill-rule="evenodd">
        <mask id="prefix__b" fill="#fff">
            <use xlink:href="#prefix__a"/>
        </mask>
        <path fill="#000" d="M21.453 15.08l-6.4-6.4 6.4-6.4v12.8zm-19.173.943L8.714 9.59l2.255 2.235c.26.259.682.258.942-.002l2.198-2.199 6.4 6.4H2.279zm-.945-.944V2.273l6.43 6.376-6.43 6.43zM20.51 1.335l-9.072 9.072-9.15-9.072h18.222zM20.786 0H2.003C.9 0 0 .9 0 2.003v13.352c0 1.101.896 2.004 2.003 2.004h18.783c1.1 0 2.003-.896 2.003-2.004V2.003c0-1.1-.896-2.003-2.003-2.003z" mask="url(#prefix__b)"/>
    </g>
</svg>
